<?xml version="1.0" encoding="iso-8859-1"?>
<!-- Generator: Adobe Illustrator 18.0.0, SVG Export Plug-In . SVG Version: 6.00 Build 0)  -->
<!DOCTYPE svg PUBLIC "-//W3C//DTD SVG 1.1//EN" "http://www.w3.org/Graphics/SVG/1.1/DTD/svg11.dtd">
<svg version="1.1" id="Capa_1" xmlns="http://www.w3.org/2000/svg" xmlns:xlink="http://www.w3.org/1999/xlink" x="0px" y="0px"
	 viewBox="0 0 58.137 58.137" style="enable-background:new 0 0 58.137 58.137;" xml:space="preserve">
<g>
	<path style="fill:#659C35;" d="M28.782,8.906c-0.473,0-0.893-0.336-0.982-0.817c-0.556-2.996-1.901-5.427-3.428-6.194
		c-0.494-0.248-0.693-0.849-0.445-1.342c0.248-0.494,0.848-0.693,1.342-0.445c3.156,1.585,4.24,6.23,4.497,7.617
		c0.101,0.543-0.258,1.064-0.801,1.166C28.903,8.9,28.842,8.906,28.782,8.906z"/>
	<path d="M28.714,11.583c-0.928,0-1.824-0.331-2.495-1.002c-0.391-0.391-0.391-1.023,0-1.414s1.023-0.391,1.414,0
		c0.302,0.302,0.728,0.449,1.217,0.416c0.536-0.038,1.061-0.289,1.479-0.707c0.391-0.391,1.023-0.391,1.414,0s0.391,1.023,0,1.414
		C30.886,11.147,29.779,11.583,28.714,11.583z"/>
	<path style="fill:#D7CC56;" d="M29.102,5.608c2.238-0.025,4.442,1.173,5.547,3.264c0.942,1.784,1.396,3.944,1.993,5.855
		c0.843,2.699,1.457,5.475,2.316,8.162c0.889,2.782,2.515,5.392,3.904,7.946c1.205,2.217,2.724,4.439,3.503,6.848
		c1.013,3.134,0.847,6.606-0.272,9.69c-2.067,5.7-7.323,9.457-13.195,10.457c-1.247,0.212-2.521,0.312-3.796,0.305h-0.066
		c-1.275,0.006-2.549-0.093-3.796-0.305c-5.871-1-11.127-4.756-13.195-10.457c-1.119-3.085-1.285-6.556-0.272-9.69
		c0.779-2.409,2.297-4.63,3.503-6.848c1.389-2.555,3.015-5.164,3.904-7.946c0.859-2.688,1.473-5.464,2.316-8.162
		c0.597-1.912,1.051-4.072,1.993-5.855c1.105-2.091,3.309-3.29,5.547-3.264"/>
	<path style="fill:#E3E82A;" d="M23.967,52.588c-0.076,0-0.153-0.008-0.23-0.027c-3.006-0.708-5.405-2.65-6.583-5.331
		c-0.222-0.506,0.008-1.096,0.513-1.318c0.507-0.221,1.096,0.008,1.318,0.513c0.922,2.1,2.821,3.626,5.209,4.189
		c0.538,0.126,0.871,0.665,0.744,1.202C24.831,52.278,24.42,52.588,23.967,52.588z"/>
	<path style="fill:#E3E82A;" d="M17.265,42.308c-0.027,0-0.054-0.001-0.082-0.003c-0.55-0.044-0.96-0.526-0.916-1.077
		c0.084-1.041,0.26-2.097,0.523-3.141c0.136-0.536,0.68-0.857,1.215-0.725c0.535,0.135,0.86,0.679,0.725,1.215
		c-0.236,0.936-0.395,1.881-0.47,2.812C18.219,41.912,17.781,42.308,17.265,42.308z"/>
</g>
<g>
</g>
<g>
</g>
<g>
</g>
<g>
</g>
<g>
</g>
<g>
</g>
<g>
</g>
<g>
</g>
<g>
</g>
<g>
</g>
<g>
</g>
<g>
</g>
<g>
</g>
<g>
</g>
<g>
</g>
</svg>
