<svg height="256pt" viewBox="0 -96 512.003 512" width="256pt" xmlns="http://www.w3.org/2000/svg"><g fill-rule="evenodd"><path d="m158.398438 60h323.601562c11 0 20-9 20-20v-10c0-11-9-20-20-20h-452c-11 0-20 9-20 20v10c0 11 9 20 20 20zm0 0" fill="#dca98a"/><path d="m130.265625 165 28.132813-105h-41.410157l-28.132812 105zm0 0" fill="#efc9b4"/><path d="m353.601562 60 28.132813 105h41.410156l-28.132812-105zm0 0" fill="#efc9b4"/><path d="m433.863281 205h-41.410156l28.136719 105h41.410156zm0 0" fill="#efc9b4"/><path d="m392.453125 205h89.546875c11 0 20-9 20-20s-9-20-20-20h-452c-11 0-20 9-20 20s9 20 20 20zm0 0" fill="#dca98a"/><path d="m91.414062 310 28.132813-105h-41.410156l-28.136719 105zm0 0" fill="#efc9b4"/></g><path d="m512 40v-10c0-16.539062-13.457031-30-30-30h-362c-5.523438 0-10 4.480469-10 10 0 5.523438 4.476562 10 10 10h362c5.515625 0 10 4.488281 10 10v10c0 5.515625-4.484375 10-10 10h-452c-5.515625 0-10-4.484375-10-10v-10c0-5.511719 4.484375-10 10-10 5.523438 0 10-4.476562 10-10 0-5.519531-4.476562-10-10-10-16.542969 0-30 13.460938-30 30v10c0 16.542969 13.457031 30 30 30h73.957031l-22.777343 85h-51.179688c-16.542969 0-30 13.457031-30 30s13.457031 30 30 30h35.105469l-22.777344 85h-2.328125c-5.519531 0-10 4.476562-10 10 0 5.519531 4.480469 10 10 10h9.789062c.148438.003906.292969.003906.4375 0h40.972657c.074219 0 .144531.003906.21875.003906s.148437-.003906.21875-.003906h9.777343c5.523438 0 10-4.480469 10-10 0-4.507812-2.984374-8.320312-7.085937-9.570312l22.890625-85.429688h257.5625l22.890625 85.429688c-4.097656 1.25-7.082031 5.0625-7.082031 9.570312 0 5.519531 4.476562 10 10 10h9.769531c.148437.003906.300781.003906.445313 0h40.964843c.074219 0 .148438.003906.226563.003906.074218 0 .148437-.003906.222656-.003906h9.78125c5.523438 0 10-4.480469 10-10 0-5.523438-4.476562-10-10-10h-2.324219l-22.777343-85h35.105468c16.542969 0 30-13.457031 30-30s-13.460937-30-30.003906-30h-51.179688l-22.777343-85h73.957031c16.542969 0 30-13.457031 30-30zm-387.339844 30h20.707032l-22.777344 85h-20.703125zm-40.921875 230h-20.703125l22.773438-85h20.707031zm365.230469 0h-20.707031l-22.773438-85h20.703125zm-25.609375-125h58.640625c5.515625 0 10 4.484375 10 10s-4.484375 10-10 10h-47.90625c-.144531-.003906-.296875-.003906-.445312 0h-40.964844c-.144532-.003906-.296875-.003906-.445313 0h-362.238281c-5.515625 0-10-4.484375-10-10s4.484375-10 10-10h58.816406c.015625 0 .027344.003906.042969.003906.023437 0 .046875-.003906.074219-.003906h41.292968c.015626 0 .03125.003906.046876.003906.023437 0 .046874-.003906.070312-.003906h161.394531c5.523438 0 10-4.476562 10-10 0-5.519531-4.476562-10-10-10h-148.441406l22.777344-85h179.855469l26.148437 97.589844c1.171875 4.371094 5.132813 7.410156 9.660156 7.410156h41.183594c.144531.003906.289063.003906.4375 0zm-13.246094-20h-20.703125l-22.777344-85h20.707032zm0 0"/><path d="m75.003906 20c5.523438 0 10-4.476562 10-10 0-5.519531-4.476562-10-10-10h-.007812c-5.523438 0-9.996094 4.476562-9.996094 10s4.480469 10 10.003906 10zm0 0"/><path d="m336.738281 155h-.007812c-5.519531 0-9.996094 4.480469-9.996094 10 0 5.523438 4.480469 10 10.003906 10 5.523438 0 10-4.476562 10-10 0-5.519531-4.476562-10-10-10zm0 0"/></svg>