<?xml version="1.0" encoding="iso-8859-1"?>
<!-- Generator: Adobe Illustrator 18.0.0, SVG Export Plug-In . SVG Version: 6.00 Build 0)  -->
<!DOCTYPE svg PUBLIC "-//W3C//DTD SVG 1.1//EN" "http://www.w3.org/Graphics/SVG/1.1/DTD/svg11.dtd">
<svg version="1.1" id="Capa_1" xmlns="http://www.w3.org/2000/svg" xmlns:xlink="http://www.w3.org/1999/xlink" x="0px" y="0px"
	 viewBox="0 0 50.484 50.484" style="enable-background:new 0 0 50.484 50.484;" xml:space="preserve">
<g>
	<path style="fill:#88C057;" d="M18.437,23.954l1.359,4.53c0.182,1.143-0.583,2.25-1.683,2.61l-1.119,0.366l-0.321,0.994
		c-0.421,1.305-1.365,2.315-2.673,2.723c-1.154,0.36-3.667-2.233-4.693-2.093L0,42.391c11.761,11.014,30.223,10.789,41.701-0.689
		S53.404,11.761,42.391,0L18.437,23.954z"/>
	<path style="fill:#E22F37;" d="M37.087,5.303l-18.65,18.65l1.359,4.53c0.182,1.143-0.583,2.25-1.683,2.61l-1.119,0.366
		l-0.321,0.994c-0.421,1.305-1.365,2.315-2.673,2.723c-1.154,0.36-3.667-2.233-4.693-2.093l-4.004,4.004c0,0.002,0,0.003,0,0.005
		c8.774,9.557,22.429,8.679,31.448-0.341s9.898-22.674,0.341-31.448C37.091,5.303,37.089,5.303,37.087,5.303z"/>
	<circle style="fill:#231F20;" cx="4.5" cy="16.984" r="1.5"/>
	<circle style="fill:#231F20;" cx="16.5" cy="38.984" r="1.5"/>
	<circle style="fill:#231F20;" cx="25.968" cy="25.615" r="1.5"/>
	<circle style="fill:#231F20;" cx="30.918" cy="20.665" r="1.5"/>
	<circle style="fill:#231F20;" cx="28.09" cy="37.636" r="1.5"/>
	<circle style="fill:#231F20;" cx="33.039" cy="32.686" r="1.5"/>
	<circle style="fill:#231F20;" cx="37.989" cy="27.736" r="1.5"/>
	<circle style="fill:#231F20;" cx="35.868" cy="15.715" r="1.5"/>
	<circle style="fill:#231F20;" cx="22.433" cy="36.221" r="1.5"/>
	<circle style="fill:#231F20;" cx="27.5" cy="30.984" r="1.5"/>
	<circle style="fill:#231F20;" cx="32.5" cy="25.984" r="1.5"/>
	<circle style="fill:#231F20;" cx="7.5" cy="26.984" r="1.5"/>
	<circle style="fill:#231F20;" cx="13.5" cy="18.984" r="1.5"/>
	<circle style="fill:#231F20;" cx="37.282" cy="21.372" r="1.5"/>
</g>
<g>
</g>
<g>
</g>
<g>
</g>
<g>
</g>
<g>
</g>
<g>
</g>
<g>
</g>
<g>
</g>
<g>
</g>
<g>
</g>
<g>
</g>
<g>
</g>
<g>
</g>
<g>
</g>
<g>
</g>
</svg>
